<svg width="351" height="283" viewBox="0 0 351 283" fill="none" xmlns="http://www.w3.org/2000/svg">
<path d="M37 164L146.5 0L178.285 47.6056H148.097L129.543 75.3945H196.84L215.394 103.183H110.989L92.4344 130.972H233.948L256 164H37Z" fill="#0071F5"/>
<path fill-rule="evenodd" clip-rule="evenodd" d="M249.799 136.166C261.315 143.289 267.968 151.701 267.968 160.712C267.968 186.379 213.98 207.187 147.383 207.187C80.785 207.187 26.7969 186.379 26.7969 160.712C26.7969 152.552 32.2526 144.884 41.8348 138.219L58.1861 113.657C22.825 125.894 0 145.232 0 166.992C0 203.991 65.9854 233.984 147.383 233.984C183.664 233.984 216.883 228.025 242.562 218.143L254.82 225.22C254.293 228.642 255.763 232.196 258.827 234.196L330.205 280.78C336.36 284.797 344.625 282.823 348.3 276.458C351.925 270.179 349.62 262.144 343.217 258.742L267.802 218.666C265.243 217.306 262.311 217.32 259.863 218.463L252.247 214.065C278.536 201.966 294.765 185.341 294.765 166.992C294.765 144.767 270.956 125.07 234.299 112.884L249.799 136.166Z" fill="#0071F5"/>
</svg>
