<svg xmlns="http://www.w3.org/2000/svg" width="86" height="51" viewBox="0 0 86 51">
    <defs>
        <linearGradient id="prefix__a" x1="50%" x2="50%" y1="0%" y2="100%">
            <stop offset="0%" stop-color="#00FFC2"/>
            <stop offset="100%" stop-color="#00D1F5"/>
        </linearGradient>
        <linearGradient id="prefix__b" x1="50%" x2="50%" y1="0%" y2="100%">
            <stop offset="0%" stop-color="#00FFC2"/>
            <stop offset="100%" stop-color="#00D1F5"/>
        </linearGradient>
        <linearGradient id="prefix__c" x1="50%" x2="50%" y1="0%" y2="100%">
            <stop offset="0%" stop-color="#00FFC2"/>
            <stop offset="100%" stop-color="#00D1F5"/>
        </linearGradient>
    </defs>
    <g fill="none" fill-rule="evenodd">
        <path fill="#2964EE" d="M40.702 41.575l16.456 7.826c.606.287.4 1.196-.27 1.196H2.11c-.668 0-.874-.906-.272-1.195l16.188-7.78c7.163-3.442 15.499-3.46 22.676-.047M15.994 38.248L.989 48.587c-.551.38-1.236-.252-.9-.833L27.477.315c.334-.578 1.221-.304 1.171.362l-1.357 17.91c-.6 7.924-4.753 15.152-11.297 19.661M43.138 38.248l15.005 10.339c.55.38 1.235-.252.9-.833L31.655.315c-.335-.578-1.222-.304-1.171.362l1.356 17.91c.6 7.924 4.753 15.152 11.298 19.661"/>
        <g opacity=".8">
            <path fill="url(#prefix__a)" d="M40.702 41.575l16.456 7.826c.606.287.4 1.196-.27 1.196H2.11c-.668 0-.874-.906-.272-1.195l16.188-7.78c7.163-3.442 15.499-3.46 22.676-.047"/>
            <path fill="url(#prefix__b)" d="M15.994 38.248L.989 48.587c-.551.38-1.236-.252-.9-.833L27.477.315c.334-.578 1.221-.304 1.171.362l-1.357 17.91c-.6 7.924-4.753 15.152-11.297 19.661"/>
            <path fill="url(#prefix__c)" d="M43.138 38.248l15.005 10.339c.55.38 1.235-.252.9-.833L31.655.315c-.335-.578-1.222-.304-1.171.362l1.356 17.91c.6 7.924 4.753 15.152 11.298 19.661"/>
        </g>
        <path fill="#FEFEFE" fill-rule="nonzero" d="M68.535 45.062H67.18v-6.525h1.355v6.525zm2.519 0h-1.355v-6.525h1.355v6.525zm6.011-6.525v1.155h-1.952v5.37h-1.372v-5.37H71.78v-1.155h5.285zm-.682 3.4h2.541v1.195h-2.54v-1.195zm4.865-2.267v1.753h1.545c.307 0 .537-.035.69-.106.272-.124.408-.369.408-.735 0-.395-.131-.661-.394-.797-.147-.077-.369-.115-.664-.115h-1.585zm1.868-1.133c.458.009.81.065 1.056.168.247.103.455.255.627.456.141.165.253.348.336.549.083.2.124.43.124.686 0 .31-.078.615-.235.914-.156.3-.414.512-.774.635.3.121.514.293.64.516.125.223.187.563.187 1.02v.439c0 .298.012.5.036.606.035.168.118.292.248.372v.164h-1.5c-.042-.145-.072-.261-.09-.35-.035-.183-.054-.37-.057-.562l-.009-.606c-.006-.417-.082-.694-.228-.833-.146-.138-.42-.208-.82-.208h-1.409v2.559h-1.332v-6.525h3.2z"/>
        <text fill="#FFF" font-family="HelveticaNeue-BlackCond, Helvetica Neue" font-size="31" font-style="condensed" font-weight="700">
            <tspan x="20.516" y="34.87">Delta</tspan>
        </text>
    </g>
</svg>
