<?xml version="1.0" encoding="UTF-8"?>
<svg width="1072px" height="1080px" viewBox="0 0 1072 1080" version="1.1" xmlns="http://www.w3.org/2000/svg" xmlns:xlink="http://www.w3.org/1999/xlink">
    <!-- Generator: Sketch 53 (72520) - https://sketchapp.com -->
    <title>Group 159 Copy</title>
    <desc>Created with Sketch.</desc>
    <defs>
        <rect id="path-1" x="0" y="0" width="1072" height="1080"></rect>
        <circle id="path-3" cx="1099" cy="1099" r="1099"></circle>
        <polygon id="path-5" points="0.367779873 0.245786206 1089.58172 0.245786206 1089.58172 1544.67766 0.367779873 1544.67766"></polygon>
        <linearGradient x1="49.9999903%" y1="18.9194829%" x2="49.9999903%" y2="103.132645%" id="linearGradient-7">
            <stop stop-color="#2964EE" offset="0%"></stop>
            <stop stop-color="#DFE8FC" offset="84.5175253%"></stop>
            <stop stop-color="#FFFFFF" offset="100%"></stop>
        </linearGradient>
        <path d="M472.63506,17.2410537 C258.442195,50.3603404 228.096619,25.6795663 174.387311,17.8008163 L174.387311,17.8008163 C146.917582,13.7708915 75.202659,15.4337157 0.586262062,23.074658 L0.586262062,23.074658 L44.5440536,426.478729 L787.301308,372.880546 L678.1473,10.9446392 C678.1473,10.9446392 683.1393,0.396955826 634.996795,0.398785115 L634.996795,0.398785115 C605.420065,0.400614405 555.780143,4.38297769 472.63506,17.2410537" id="path-8"></path>
        <linearGradient x1="40.3385185%" y1="34.4626972%" x2="45.5857355%" y2="46.4096591%" id="linearGradient-10">
            <stop stop-color="#2964EE" offset="0%"></stop>
            <stop stop-color="#FFFFFF" offset="100%"></stop>
        </linearGradient>
        <path d="M571.190212,14.2794329 C518.618908,27.9591515 491.10694,55.8522795 274.456606,46.0697859 L274.456606,46.0697859 C53.4615048,36.0928896 69.3477428,62.0860057 69.3477428,62.0860057 L69.3477428,62.0860057 L0,434.655226 L1641.77759,374.826859 C1641.77759,374.826859 1581.60661,61.251541 1493.80826,23.8363459 L1493.80826,23.8363459 C1406.00808,-13.5770153 1488.41394,32.1369769 1427.19889,51.7973314 L1427.19889,51.7973314 C1365.98751,71.4576859 1006.63762,62.815933 955.350331,28.8871496 L955.350331,28.8871496 C923.592508,7.87881371 837.656991,0.654733821 753.98544,0.654733821 L753.98544,0.654733821 C675.594649,0.654733821 599.191241,6.99483135 571.190212,14.2794329" id="path-11"></path>
        <linearGradient x1="49.9622221%" y1="-11.533944%" x2="49.9622221%" y2="85.8794993%" id="linearGradient-13">
            <stop stop-color="#FFFFFF" offset="0%"></stop>
            <stop stop-color="#9AB6F7" offset="68.3646537%"></stop>
            <stop stop-color="#2964EE" offset="100%"></stop>
        </linearGradient>
    </defs>
    <g id="Page-1" stroke="none" stroke-width="1" fill="none" fill-rule="evenodd">
        <g id="Group-159-Copy">
            <mask id="mask-2" fill="white">
                <use xlink:href="#path-1"></use>
            </mask>
            <use id="Mask" fill="#FFFFFF" xlink:href="#path-1"></use>
            <g id="Group-159" mask="url(#mask-2)">
                <g transform="translate(44.000000, -431.000000)">
                    <mask id="mask-4" fill="white">
                        <use xlink:href="#path-3"></use>
                    </mask>
                    <use id="Mask" stroke="none" fill="#D8D8D8" fill-rule="evenodd" xlink:href="#path-3"></use>
                    <g id="Group-159" stroke="none" stroke-width="1" fill="none" fill-rule="evenodd" mask="url(#mask-4)">
                        <g transform="translate(-272.000000, -457.000000)">
                            <g id="Group-3" transform="translate(227.914345, 574.725181)">
                                <mask id="mask-6" fill="white">
                                    <use xlink:href="#path-5"></use>
                                </mask>
                                <g id="Clip-2"></g>
                                <polygon id="Fill-1" fill="url(#linearGradient-7)" mask="url(#mask-6)" points="0.367779873 1544.67766 1089.58172 1544.67766 1089.58172 0.245786206 0.367779873 0.245786206"></polygon>
                            </g>
                            <g id="Group-118" transform="translate(279.597523, 0.268567)">
                                <polygon id="Fill-4" fill="#FFFFFF" points="913.267565 984.451123 916.581454 981.120877 915.715927 976.494823 919.902664 978.620901 924.023525 976.368358 923.298897 981.01274 926.71343 984.244013 922.078376 984.991806 920.067352 989.240298 917.924577 985.057788"></polygon>
                                <polygon id="Fill-10" fill="#FFFFFF" points="939.763129 1158.1294 943.077018 1154.79915 942.209661 1150.1731 946.396398 1152.29918 950.519089 1150.04664 949.794461 1154.69285 953.208994 1157.92229 948.57211 1158.67192 946.562915 1162.91858 944.420141 1158.73607"></polygon>
                                <polygon id="Fill-16-Copy" fill="#FFFFFF" points="184.402477 1380.8142 187.716366 1377.48395 186.849009 1372.8579 191.035746 1374.98581 195.158437 1372.73143 194.433809 1377.37765 197.848342 1380.60709 193.211458 1381.35672 191.202264 1385.60521 189.059489 1381.4227"></polygon>
                                <polygon id="Fill-16-Copy-2" fill="#FFFFFF" points="425.402477 914.814199 428.716366 911.483953 427.849009 906.857898 432.035746 908.98581 436.158437 906.731433 435.433809 911.377649 438.848342 914.607089 434.211458 915.356715 432.202264 919.605207 430.059489 915.422697"></polygon>
                                <polygon id="Fill-20" fill="#FFFFFF" points="588.635927 990.88746 591.949817 987.557214 591.08429 982.93116 595.271026 985.059071 599.391888 982.804695 598.66726 987.45091 602.081793 990.68035 597.444909 991.429976 595.435714 995.678468 593.29294 991.495958"></polygon>
                                <polygon id="Fill-22" fill="#FFFFFF" points="763.599057 1255.3658 766.912947 1252.03555 766.04559 1247.41133 770.232326 1249.53741 774.353187 1247.28303 773.62856 1251.92925 777.043092 1255.16052 772.408038 1255.90831 770.397014 1260.15681 768.25424 1255.9743"></polygon>
                                <polygon id="Fill-24" fill="#FFFFFF" points="0.372926959 1255.3658 3.68681667 1252.03555 2.82128943 1247.41133 7.00802585 1249.53741 11.1288871 1247.28303 10.4042596 1251.92925 13.818792 1255.16052 9.18190823 1255.90831 7.17271391 1260.15681 5.02993928 1255.9743"></polygon>
                                <polygon id="Fill-26" fill="#FFFFFF" points="637.73694 1215.62352 641.05083 1212.29327 640.183473 1207.66905 644.370209 1209.79513 648.4929 1207.54075 647.768273 1212.18697 651.182805 1215.41824 646.545921 1216.16604 644.536727 1220.41453 642.392123 1216.23202"></polygon>
                                <polygon id="Fill-28" fill="#FFFFFF" points="518.429225 1287.99158 521.743115 1284.66133 520.877588 1280.03711 525.064324 1282.16319 529.185185 1279.90881 528.460558 1284.55503 531.87509 1287.7863 527.238206 1288.53409 525.229012 1292.78259 523.086237 1288.60008"></polygon>
                                <polygon id="Fill-30" fill="#FFFFFF" points="218.518546 1037.33458 221.832436 1034.00434 220.966909 1029.37828 225.153645 1031.50436 229.274506 1029.25182 228.549879 1033.89803 231.964411 1037.12747 227.327528 1037.8771 225.318333 1042.12559 223.175559 1037.94125"></polygon>
                                <polygon id="Fill-32" fill="#FFFFFF" points="457.316231 1098.19909 460.630121 1094.86884 459.762764 1090.24462 463.9495 1092.3707 468.070362 1090.11632 467.345734 1094.76254 470.760267 1097.99381 466.125213 1098.7416 464.114188 1102.9901 461.971414 1098.80759"></polygon>
                                <polygon id="Fill-34" fill="#FFFFFF" points="334.856204 1203.30033 338.170094 1199.97008 337.304566 1195.34586 341.491303 1197.47194 345.612164 1195.21756 344.887536 1199.86378 348.302069 1203.09322 343.667015 1203.84284 341.655991 1208.09134 339.513216 1203.90883"></polygon>
                                <polygon id="Fill-36" fill="#FFFFFF" points="776.515358 1078.87028 779.831078 1075.54004 778.963721 1070.91398 783.150457 1073.04006 787.271319 1070.78752 786.546691 1075.43373 789.961224 1078.66317 785.32617 1079.4128 783.315145 1083.66129 781.172371 1079.47695"></polygon>
                                <polygon id="Fill-40" fill="#FFFFFF" points="46.2661823 1103.45783 49.580072 1100.12759 48.7127149 1095.50337 52.8994513 1097.62945 57.0221424 1095.37507 56.2975149 1100.02128 59.7120473 1103.25256 55.0751635 1104.00035 53.0659692 1108.24884 50.9231946 1104.06633"></polygon>
                                <polygon id="Fill-42" fill="#FFFFFF" points="103.277894 1196.86381 106.593614 1193.53356 105.726257 1188.90751 109.912993 1191.03359 114.033854 1188.78104 113.309227 1193.42726 116.723759 1196.6567 112.088706 1197.40632 110.077681 1201.65482 107.934907 1197.47047"></polygon>
                                <polygon id="Fill-44" fill="#FFFFFF" points="16.3163779 920.97704 19.6320975 917.646794 18.7647404 913.02074 22.9514768 915.146819 27.072338 912.894275 26.3477105 917.54049 29.762243 920.769931 25.127189 921.519557 23.1161649 925.768049 20.9733902 921.585538"></polygon>
                            </g>
                            <g id="Group-121" transform="translate(703.230134, 1766.849747)">
                                <mask id="mask-9" fill="white">
                                    <use xlink:href="#path-8"></use>
                                </mask>
                                <g id="Clip-120"></g>
                                <path d="M472.63506,17.2410537 C258.442195,50.3603404 228.096619,25.6795663 174.387311,17.8008163 L174.387311,17.8008163 C146.917582,13.7708915 75.202659,15.4337157 0.586262062,23.074658 L0.586262062,23.074658 L44.5440536,426.478729 L787.301308,372.880546 L678.1473,10.9446392 C678.1473,10.9446392 683.1393,0.396955826 634.996795,0.398785115 L634.996795,0.398785115 C605.420065,0.400614405 555.780143,4.38297769 472.63506,17.2410537" id="Fill-119" fill="url(#linearGradient-10)" mask="url(#mask-9)"></path>
                            </g>
                            <g id="Group-131" transform="translate(1054.845201, 1516.054529)">
                                <polygon id="Fill-122" fill="#487CF6" points="32.7050647 410.858299 117.110212 410.858299 117.110212 106.57185 32.7050647 106.57185"></polygon>
                                <polygon id="Fill-124" fill="#2964EE" points="74.9076384 410.858299 117.110212 410.858299 117.110212 106.57185 74.9076384 106.57185"></polygon>
                                <polygon id="Fill-125" fill="#487CF6" points="19.4047815 101.894538 130.410495 101.894538 130.410495 84.3724255 19.4047815 84.3724255"></polygon>
                                <polygon id="Fill-126" fill="#2964EE" points="74.9076384 101.894538 130.410495 101.894538 130.410495 84.3724255 74.9076384 84.3724255"></polygon>
                                <polygon id="Fill-127" fill="#487CF6" points="0.42568432 26.8365569 149.387751 26.8365569 149.387751 0.553387556 0.42568432 0.553387556"></polygon>
                                <polygon id="Fill-128" fill="#2964EE" points="74.9076384 26.8365569 149.387751 26.8365569 149.387751 0.553387556 74.9076384 0.553387556"></polygon>
                                <polygon id="Fill-129" fill="#487CF6" points="77.2128613 30.6257093 72.6020473 30.6257093 6.39341072 30.6257093 23.5826871 80.5840037 73.1581439 80.5840037 76.6567647 80.5840037 126.232221 80.5840037 143.419656 30.6257093"></polygon>
                                <polygon id="Fill-130" fill="#2964EE" points="74.9076384 30.6257093 74.9076384 80.5840037 76.6569488 80.5840037 126.232406 80.5840037 143.419841 30.6257093 77.2130454 30.6257093"></polygon>
                            </g>
                            <g id="Group-134" transform="translate(0.000000, 1761.766060)">
                                <mask id="mask-12" fill="white">
                                    <use xlink:href="#path-11"></use>
                                </mask>
                                <g id="Clip-133"></g>
                                <path d="M571.190212,14.2794329 C518.618908,27.9591515 491.10694,55.8522795 274.456606,46.0697859 L274.456606,46.0697859 C53.4615048,36.0928896 69.3477428,62.0860057 69.3477428,62.0860057 L69.3477428,62.0860057 L0,434.655226 L1641.77759,374.826859 C1641.77759,374.826859 1581.60661,61.251541 1493.80826,23.8363459 L1493.80826,23.8363459 C1406.00808,-13.5770153 1488.41394,32.1369769 1427.19889,51.7973314 L1427.19889,51.7973314 C1365.98751,71.4576859 1006.63762,62.815933 955.350331,28.8871496 L955.350331,28.8871496 C923.592508,7.87881371 837.656991,0.654733821 753.98544,0.654733821 L753.98544,0.654733821 C675.594649,0.654733821 599.191241,6.99483135 571.190212,14.2794329" id="Fill-132" fill="url(#linearGradient-13)" mask="url(#mask-12)"></path>
                            </g>
                            <g id="Group-158" transform="translate(199.954592, 1604.171768)">
                                <polygon id="Fill-135" fill="#487CF6" points="414.182834 222.649816 722.360057 222.649816 722.360057 199.670971 414.182834 199.670971"></polygon>
                                <polygon id="Fill-137" fill="#2964EE" points="567.969336 222.649816 722.057947 222.649816 722.057947 199.670971 567.969336 199.670971"></polygon>
                                <polygon id="Fill-138" fill="#487CF6" points="427.477479 370.800241 452.856499 370.800241 452.856499 237.165277 427.477479 237.165277"></polygon>
                                <polygon id="Fill-139" fill="#487CF6" points="467.359582 370.800241 492.738602 370.800241 492.738602 237.165277 467.359582 237.165277"></polygon>
                                <polygon id="Fill-140" fill="#4E83FE" points="643.80612 370.800241 669.18514 370.800241 669.18514 237.165277 643.80612 237.165277"></polygon>
                                <polygon id="Fill-141" fill="#2964EE" points="440.166074 370.800241 452.856499 370.800241 452.856499 237.165277 440.166074 237.165277"></polygon>
                                <polygon id="Fill-142" fill="#2964EE" points="480.048176 370.800241 492.738602 370.800241 492.738602 237.165277 480.048176 237.165277"></polygon>
                                <polygon id="Fill-143" fill="#2964EE" points="656.494714 370.800241 669.18514 370.800241 669.18514 237.165277 656.494714 237.165277"></polygon>
                                <polygon id="Fill-144" fill="#4E83FE" points="683.688222 370.800241 709.067243 370.800241 709.067243 237.165277 683.688222 237.165277"></polygon>
                                <polygon id="Fill-145" fill="#2964EE" points="696.376817 370.800241 709.067243 370.800241 709.067243 237.165277 696.376817 237.165277"></polygon>
                                <polygon id="Fill-146" fill="#487CF6" points="0.27464491 266.190704 412.976227 266.190704 412.976227 243.210027 0.27464491 243.210027"></polygon>
                                <polygon id="Fill-147" fill="#487CF6" points="0.27464491 371.410396 412.976227 371.410396 412.976227 277.076385 0.27464491 277.076385"></polygon>
                                <polygon id="Fill-148" fill="#2964EE" points="206.62269 266.190704 412.974396 266.190704 412.974396 243.210027 206.62269 243.210027"></polygon>
                                <polygon id="Fill-149" fill="#2964EE" points="206.62269 371.410396 412.974396 371.410396 412.974396 277.076385 206.62269 277.076385"></polygon>
                                <polygon id="Fill-150" fill="#487CF6" points="724.324683 266.190704 1136.81021 266.190704 1136.81021 243.210027 724.324683 243.210027"></polygon>
                                <polygon id="Fill-151" fill="#487CF6" points="724.324683 371.410396 1136.81021 371.410396 1136.81021 277.076385 724.324683 277.076385"></polygon>
                                <polygon id="Fill-152" fill="#2964EE" points="930.566532 266.190704 1136.81021 266.190704 1136.81021 243.210027 930.566532 243.210027"></polygon>
                                <polygon id="Fill-153" fill="#2964EE" points="930.566532 371.410396 1136.81021 371.410396 1136.81021 277.076385 930.566532 277.076385"></polygon>
                                <path d="M694.969171,190.598532 L441.572622,190.598532 C445.344412,123.836935 500.617615,70.8652106 568.271812,70.8652106 C635.924177,70.8652106 691.19738,123.836935 694.969171,190.598532" id="Fill-154" fill="#487CF6"></path>
                                <path d="M600.218508,32.4805906 C600.218508,50.138443 585.915001,64.4505198 568.271812,64.4505198 C550.626792,64.4505198 536.325116,50.138443 536.325116,32.4805906 C536.325116,14.8227382 550.626792,0.510661353 568.271812,0.510661353 C585.915001,0.510661353 600.218508,14.8227382 600.218508,32.4805906" id="Fill-155" fill="#487CF6"></path>
                                <path d="M694.969171,190.598532 C691.19738,123.836935 635.924177,70.8652106 568.271812,70.8652106 L568.271812,190.598532 L694.969171,190.598532 Z" id="Fill-156" fill="#2964EE"></path>
                                <path d="M568.271262,0.510111663 L568.271262,64.4499701 C585.914451,64.4499701 600.217958,50.1378933 600.217958,32.4800409 C600.217958,14.8240208 585.914451,0.510111663 568.271262,0.510111663" id="Fill-157" fill="#2964EE"></path>
                            </g>
                        </g>
                    </g>
                </g>
            </g>
        </g>
    </g>
</svg>